<svg width="36" height="36" viewBox="0 0 36 36" fill="none" xmlns="http://www.w3.org/2000/svg">
<rect width="36" height="36" fill="white" fill-opacity="0.01" style="mix-blend-mode:multiply"/>
<path d="M9 21.375H6.75V19.125C6.75098 18.2302 7.10688 17.3723 7.7396 16.7396C8.37232 16.1069 9.2302 15.751 10.125 15.75H15.75V18H10.125C9.82673 18.0003 9.54077 18.119 9.32987 18.3299C9.11896 18.5408 9.00033 18.8267 9 19.125V21.375Z" fill="#679CFE"/>
<path d="M13.5 14.625C12.61 14.625 11.74 14.3611 10.9999 13.8666C10.2599 13.3721 9.68314 12.6693 9.34254 11.8471C9.00195 11.0248 8.91283 10.12 9.08647 9.24709C9.2601 8.37418 9.68868 7.57236 10.318 6.94302C10.9474 6.31368 11.7492 5.8851 12.6221 5.71147C13.495 5.53783 14.3998 5.62695 15.2221 5.96754C16.0443 6.30814 16.7471 6.88491 17.2416 7.62493C17.7361 8.36495 18 9.23498 18 10.125C17.9987 11.3181 17.5241 12.4619 16.6805 13.3055C15.8369 14.1491 14.6931 14.6237 13.5 14.625ZM13.5 7.875C13.055 7.875 12.62 8.00696 12.25 8.25419C11.88 8.50143 11.5916 8.85283 11.4213 9.26396C11.251 9.6751 11.2064 10.1275 11.2932 10.564C11.38 11.0004 11.5943 11.4013 11.909 11.716C12.2237 12.0307 12.6246 12.245 13.061 12.3318C13.4975 12.4186 13.9499 12.374 14.361 12.2037C14.7722 12.0334 15.1236 11.745 15.3708 11.375C15.618 11.005 15.75 10.57 15.75 10.125C15.7494 9.52845 15.5121 8.95652 15.0903 8.5347C14.6685 8.11288 14.0965 7.87563 13.5 7.875Z" fill="#679CFE"/>
<path d="M22.5 22.5C21.61 22.5 20.74 22.2361 19.9999 21.7416C19.2599 21.2471 18.6831 20.5443 18.3425 19.7221C18.0019 18.8998 17.9128 17.995 18.0865 17.1221C18.2601 16.2492 18.6887 15.4474 19.318 14.818C19.9474 14.1887 20.7492 13.7601 21.6221 13.5865C22.495 13.4128 23.3998 13.5019 24.2221 13.8425C25.0443 14.1831 25.7471 14.7599 26.2416 15.4999C26.7361 16.24 27 17.11 27 18C26.9987 19.1931 26.5241 20.3369 25.6805 21.1805C24.8369 22.0241 23.6931 22.4987 22.5 22.5ZM22.5 15.75C22.055 15.75 21.62 15.882 21.25 16.1292C20.88 16.3764 20.5916 16.7278 20.4213 17.139C20.251 17.5501 20.2064 18.0025 20.2932 18.439C20.38 18.8754 20.5943 19.2763 20.909 19.591C21.2237 19.9057 21.6246 20.12 22.061 20.2068C22.4975 20.2936 22.9499 20.249 23.361 20.0787C23.7722 19.9084 24.1236 19.62 24.3708 19.25C24.618 18.88 24.75 18.445 24.75 18C24.7494 17.4035 24.5121 16.8315 24.0903 16.4097C23.6685 15.9879 23.0965 15.7506 22.5 15.75Z" fill="#679CFE"/>
<path d="M29.25 29.25H27V27C26.9997 26.7017 26.881 26.4158 26.6701 26.2049C26.4592 25.994 26.1733 25.8753 25.875 25.875H19.125C18.8267 25.8753 18.5408 25.994 18.3299 26.2049C18.119 26.4158 18.0003 26.7017 18 27V29.25H15.75V27C15.751 26.1052 16.1069 25.2473 16.7396 24.6146C17.3723 23.9819 18.2302 23.626 19.125 23.625H25.875C26.7698 23.626 27.6277 23.9819 28.2604 24.6146C28.8931 25.2473 29.249 26.1052 29.25 27V29.25Z" fill="#679CFE"/>
<path d="M9 33.75H4.5C3.90345 33.7494 3.33152 33.5121 2.9097 33.0903C2.48788 32.6685 2.25063 32.0965 2.25 31.5V4.5C2.25063 3.90345 2.48788 3.33152 2.9097 2.9097C3.33152 2.48788 3.90345 2.25063 4.5 2.25H9V4.5H4.5V31.5H9V33.75Z" fill="#679CFE"/>
<path d="M31.5 33.75H27V31.5H31.5V4.5H27V2.25H31.5C32.0965 2.25063 32.6685 2.48788 33.0903 2.9097C33.5121 3.33152 33.7494 3.90345 33.75 4.5V31.5C33.7494 32.0965 33.5121 32.6685 33.0903 33.0903C32.6685 33.5121 32.0965 33.7494 31.5 33.75Z" fill="#679CFE"/>
<path d="M22.3496 22.5996C21.4596 22.5996 20.5896 22.3357 19.8495 21.8412C19.1095 21.3468 18.5327 20.644 18.1922 19.8217C17.8516 18.9994 17.7624 18.0946 17.9361 17.2217C18.1097 16.3488 18.5383 15.547 19.1676 14.9176C19.797 14.2883 20.5988 13.8597 21.4717 13.6861C22.3446 13.5124 23.2494 13.6016 24.0717 13.9422C24.894 14.2827 25.5968 14.8595 26.0912 15.5995C26.5857 16.3396 26.8496 17.2096 26.8496 18.0996C26.8483 19.2927 26.3737 20.4365 25.5301 21.2801C24.6865 22.1237 23.5427 22.5983 22.3496 22.5996ZM22.3496 15.8496C21.9046 15.8496 21.4696 15.9816 21.0996 16.2288C20.7296 16.476 20.4412 16.8274 20.2709 17.2386C20.1006 17.6497 20.056 18.1021 20.1428 18.5386C20.2297 18.975 20.444 19.3759 20.7586 19.6906C21.0733 20.0053 21.4742 20.2196 21.9107 20.3064C22.3471 20.3932 22.7995 20.3486 23.2106 20.1783C23.6218 20.008 23.9732 19.7197 24.2204 19.3496C24.4676 18.9796 24.5996 18.5446 24.5996 18.0996C24.599 17.5031 24.3617 16.9311 23.9399 16.5093C23.5181 16.0875 22.9462 15.8502 22.3496 15.8496Z" fill="#013698"/>
<path d="M29.0996 29.3496H26.8496V27.0996C26.8493 26.8013 26.7306 26.5154 26.5197 26.3045C26.3088 26.0936 26.0229 25.9749 25.7246 25.9746H18.9746C18.6763 25.9749 18.3904 26.0936 18.1795 26.3045C17.9686 26.5154 17.8499 26.8013 17.8496 27.0996V29.3496H15.5996V27.0996C15.6006 26.2048 15.9565 25.3469 16.5892 24.7142C17.2219 24.0815 18.0798 23.7256 18.9746 23.7246H25.7246C26.6194 23.7256 27.4773 24.0815 28.11 24.7142C28.7427 25.3469 29.0986 26.2048 29.0996 27.0996V29.3496Z" fill="#013698"/>
</svg>
